<?xml version="1.0" encoding="UTF-8" standalone="no"?>
<svg width="14px" height="14px" viewBox="0 0 14 14" version="1.1" xmlns="http://www.w3.org/2000/svg" xmlns:xlink="http://www.w3.org/1999/xlink">
    <!-- Generator: Sketch 3.8.3 (29802) - http://www.bohemiancoding.com/sketch -->
    <title>Shopping Bag</title>
    <defs></defs>
    <g id="Symbols" stroke="none" stroke-width="1" fill="none" fill-rule="evenodd">
        <g id="Group-3-Copy-4" transform="translate(-204.000000, -12.000000)" fill="#FFFFFF">
            <g id="Group-14">
                <g transform="translate(88.000000, 11.000000)">
                    <path d="M129.726579,11.9999988 L116.273438,11.9999988 L116,14.4453142 C115.984375,14.5859394 116.03125,14.7265646 116.125,14.8359397 C116.21875,14.9375023 116.359375,15.0000024 116.500001,15.0000024 L129.500016,15.0000024 C129.640641,15.0000024 129.781266,14.9375023 129.875017,14.8359397 C129.968767,14.7265646 130.015642,14.5859394 130.000017,14.4453142 L129.726579,11.9999988 Z M129.000015,5.44530349 C128.968765,5.1953032 128.757828,4.99999046 128.500015,4.99999046 L126.500013,4.99999046 L126.500013,5.99999166 C126.500013,6.55467982 126.054699,6.99999285 125.500011,6.99999285 C124.945323,6.99999285 124.50001,6.55467982 124.50001,5.99999166 L124.50001,4.99999046 L121.500007,4.99999046 L121.500007,5.99999166 C121.500007,6.55467982 121.054694,6.99999285 120.500005,6.99999285 C119.945317,6.99999285 119.500004,6.55467982 119.500004,5.99999166 L119.500004,4.99999046 L117.500002,4.99999046 C117.242189,4.99999046 117.031251,5.1953032 117.000001,5.44530349 L116.328125,11.4999982 L129.671891,11.4999982 L129.000015,5.44530349 Z M126.000012,3.99998927 C126.000012,2.3437373 124.65626,0.999985695 123.000008,0.999985695 C121.343756,0.999985695 120.000005,2.3437373 120.000005,3.99998927 L120.000005,5.99999166 C120.000005,6.27342948 120.226568,6.49999225 120.500005,6.49999225 C120.773443,6.49999225 121.000006,6.27342948 121.000006,5.99999166 L121.000006,3.99998927 C121.000006,2.89842546 121.898445,1.99998689 123.000008,1.99998689 C124.101572,1.99998689 125.000011,2.89842546 125.000011,3.99998927 L125.000011,5.99999166 C125.000011,6.27342948 125.226573,6.49999225 125.500011,6.49999225 C125.773449,6.49999225 126.000012,6.27342948 126.000012,5.99999166 L126.000012,3.99998927 Z" id="ïŠ"></path>
                </g>
            </g>
        </g>
    </g>
</svg>
